<svg height="496pt" viewBox="0 0 496 496" width="496pt" xmlns="http://www.w3.org/2000/svg" xmlns:xlink="http://www.w3.org/1999/xlink"><linearGradient id="a" gradientUnits="userSpaceOnUse" x1="248" x2="248" y1="496" y2="0"><stop offset="0" stop-color="#9f2fff"/><stop offset="1" stop-color="#0bb1d3"/></linearGradient><path d="m472 0h-448c-13.230469 0-24 10.769531-24 24v472h496v-472c0-13.230469-10.769531-24-24-24zm-448 16h448c4.414062 0 8 3.585938 8 8v40h-464v-40c0-4.414062 3.585938-8 8-8zm-8 464v-400h464v400zm32-432h-16v-16h16zm32 0h-16v-16h16zm32 0h-16v-16h16zm-8 96.457031v111.09375l77.769531-55.550781zm16 31.085938 34.230469 24.457031-34.230469 24.457031zm43.992188-24.054688 8.015624-13.839843c22.199219 12.839843 35.992188 36.734374 35.992188 62.351562h-16c0-19.929688-10.734375-38.511719-28.007812-48.511719zm-13.976563-5.71875c-4.566406-1.175781-9.28125-1.769531-14.015625-1.769531v-16c6.070312 0 12.128906.769531 17.984375 2.265625zm-14.015625 158.230469c57.34375 0 104-46.65625 104-104s-46.65625-104-104-104-104 46.65625-104 104 46.65625 104 104 104zm0-192c48.519531 0 88 39.480469 88 88s-39.480469 88-88 88-88-39.480469-88-88 39.480469-88 88-88zm329.222656 274.097656-90.4375-11.304687 11.304688 90.4375 21.910156-21.917969 24 24 35.3125-35.3125-24-24zm-20.535156 45.902344-12.6875 12.6875-24-24-10.097656 10.089844-4.695313-37.5625 37.5625 4.695312-10.082031 10.089844zm-76.6875-72v-14.625l-9.375-9.375h-13.25l-9.375 9.375v13.25l9.375 9.375h14.625v24h-16v-20.6875l-14.625 14.625-11.3125-11.3125 14.625-14.625h-20.6875v-16h20.6875l-14.625-14.625 11.3125-11.3125 14.625 14.625v-20.6875h16v20.6875l14.625-14.625 11.3125 11.3125-14.625 14.625h20.6875v16zm-88-48c0-3.039062-.625-5.929688-1.664062-8.617188l21.777343-18.664062c3.519531 2.035156 7.542969 3.28125 11.886719 3.28125 13.230469 0 24-10.769531 24-24 0-10.414062-6.710938-19.214844-16-22.527344v-73.472656h16v-48h-16v-24h-16v24h-16v48h16v73.472656c-9.289062 3.3125-16 12.113282-16 22.527344 0 3.039062.625 5.929688 1.664062 8.617188l-21.777343 18.664062c-3.519531-2.035156-7.542969-3.28125-11.886719-3.28125-13.230469 0-24 10.769531-24 24 0 10.414062 6.710938 19.214844 16 22.527344v42.953125c-2.648438.945312-5.046875 2.335937-7.175781 4.085937l-41.304688-24.78125c.3125-1.554687.480469-3.144531.480469-4.785156 0-13.230469-10.769531-24-24-24s-24 10.769531-24 24c0 2.03125.328125 3.976562.808594 5.863281l-39.992188 31.328125-37.144531-39.511718c2.710937-3.886719 4.328125-8.589844 4.328125-13.679688 0-13.230469-10.769531-24-24-24s-24 10.769531-24 24 10.769531 24 24 24c2.265625 0 4.40625-.414062 6.488281-1l41.511719 44.167969v14.304687c-9.289062 3.3125-16 12.113282-16 22.527344 0 13.230469 10.769531 24 24 24s24-10.769531 24-24c0-10.414062-6.710938-19.214844-16-22.527344v-13.578125l41.742188-32.703125c3.992187 2.984375 8.898437 4.808594 14.257812 4.808594 5.785156 0 11.03125-2.144531 15.175781-5.566406l41.304688 24.78125c-.3125 1.554687-.480469 3.144531-.480469 4.785156 0 13.230469 10.769531 24 24 24s24-10.769531 24-24c0-10.414062-6.710938-19.214844-16-22.527344v-42.953125c9.289062-3.304687 16-12.105469 16-22.519531zm24-176h16v16h-16zm-256 200c0-4.414062 3.585938-8 8-8s8 3.585938 8 8-3.585938 8-8 8-8-3.585938-8-8zm264-80c4.414062 0 8 3.585938 8 8s-3.585938 8-8 8-8-3.585938-8-8 3.585938-8 8-8zm-56 48c4.414062 0 8 3.585938 8 8s-3.585938 8-8 8-8-3.585938-8-8 3.585938-8 8-8zm-144 144c-4.414062 0-8-3.585938-8-8s3.585938-8 8-8 8 3.585938 8 8-3.585938 8-8 8zm64-88c-4.414062 0-8-3.585938-8-8s3.585938-8 8-8 8 3.585938 8 8-3.585938 8-8 8zm80 48c-4.414062 0-8-3.585938-8-8s3.585938-8 8-8 8 3.585938 8 8-3.585938 8-8 8zm176-120h16v-112h16v-48h-16v-32h-16v32h-16v48h16zm0-144h16v16h-16zm-64 144h16v-64h16v-48h-16v-80h-16v80h-16v48h16zm0-96h16v16h-16zm0 0" fill="url(#a)"/></svg>