<?xml version="1.0" encoding="UTF-8" standalone="no"?>
<!-- Generator: Adobe Illustrator 16.0.0, SVG Export Plug-In . SVG Version: 6.00 Build 0)  -->

<svg
   xmlns:dc="http://purl.org/dc/elements/1.1/"
   xmlns:cc="http://creativecommons.org/ns#"
   xmlns:rdf="http://www.w3.org/1999/02/22-rdf-syntax-ns#"
   xmlns:svg="http://www.w3.org/2000/svg"
   xmlns="http://www.w3.org/2000/svg"
   xmlns:sodipodi="http://sodipodi.sourceforge.net/DTD/sodipodi-0.dtd"
   xmlns:inkscape="http://www.inkscape.org/namespaces/inkscape"
   version="1.1"
   id="Capa_1"
   x="0px"
   y="0px"
   width="24.826"
   height="57.068001"
   viewBox="0 0 24.826 57.068"
   xml:space="preserve"
   sodipodi:docname="paperclip.svg"
   inkscape:version="0.92.4 (5da689c313, 2019-01-14)"><metadata
   id="metadata43"><rdf:RDF><cc:Work
       rdf:about=""><dc:format>image/svg+xml</dc:format><dc:type
         rdf:resource="http://purl.org/dc/dcmitype/StillImage" /></cc:Work></rdf:RDF></metadata><defs
   id="defs41" /><sodipodi:namedview
   pagecolor="#ffffff"
   bordercolor="#666666"
   borderopacity="1"
   objecttolerance="10"
   gridtolerance="10"
   guidetolerance="10"
   inkscape:pageopacity="0"
   inkscape:pageshadow="2"
   inkscape:window-width="640"
   inkscape:window-height="480"
   id="namedview39"
   showgrid="false"
   showguides="true"
   inkscape:guide-bbox="true"
   inkscape:zoom="4.1354173"
   inkscape:cx="12.413"
   inkscape:cy="28.534"
   inkscape:window-x="0"
   inkscape:window-y="0"
   inkscape:window-maximized="0"
   inkscape:current-layer="Capa_1"><sodipodi:guide
     position="-60.131068,-11.607052"
     orientation="0,1"
     id="guide45"
     inkscape:locked="false" /></sodipodi:namedview>
<g
   id="g6"
   transform="translate(-16.121)">
	<g
   id="g4">
		<path
   d="M 28.534,57.068 C 21.69,57.068 16.121,51.5 16.121,44.655 V 8.399 c 0,-0.375 0.103,-0.726 0.283,-1.025 C 17.45,3.145 21.277,0 25.824,0 c 5.35,0 9.703,4.353 9.703,9.703 v 27.888 c 0,3.856 -3.137,6.994 -6.994,6.994 -3.857,0 -6.994,-3.138 -6.994,-6.994 V 15.838 c 0,-1.104 0.896,-2 2,-2 1.104,0 2,0.896 2,2 v 21.753 c 0,1.651 1.343,2.994 2.994,2.994 1.65,0 2.994,-1.343 2.994,-2.994 V 9.703 C 31.527,6.558 28.968,4 25.824,4 22.68,4 20.121,6.559 20.121,9.703 v 34.952 c 0,4.639 3.774,8.413 8.413,8.413 4.64,0 8.413,-3.774 8.413,-8.413 V 15.836 c 0,-1.104 0.896,-2 2,-2 1.104,0 2,0.896 2,2 v 28.819 c 0,6.845 -5.568,12.413 -12.413,12.413 z"
   id="path2"
   inkscape:connector-curvature="0" />
	</g>
</g>
<g
   id="g8"
   transform="translate(-16.121)">
</g>
<g
   id="g10"
   transform="translate(-16.121)">
</g>
<g
   id="g12"
   transform="translate(-16.121)">
</g>
<g
   id="g14"
   transform="translate(-16.121)">
</g>
<g
   id="g16"
   transform="translate(-16.121)">
</g>
<g
   id="g18"
   transform="translate(-16.121)">
</g>
<g
   id="g20"
   transform="translate(-16.121)">
</g>
<g
   id="g22"
   transform="translate(-16.121)">
</g>
<g
   id="g24"
   transform="translate(-16.121)">
</g>
<g
   id="g26"
   transform="translate(-16.121)">
</g>
<g
   id="g28"
   transform="translate(-16.121)">
</g>
<g
   id="g30"
   transform="translate(-16.121)">
</g>
<g
   id="g32"
   transform="translate(-16.121)">
</g>
<g
   id="g34"
   transform="translate(-16.121)">
</g>
<g
   id="g36"
   transform="translate(-16.121)">
</g>
</svg>