<?xml version="1.0" encoding="utf-8"?><svg xmlns="http://www.w3.org/2000/svg" xmlns:xlink="http://www.w3.org/1999/xlink"><symbol viewBox="0 0 96.124 96.123" id="facebook" xmlns="http://www.w3.org/2000/svg"><path d="M72.089.02L59.624 0C45.62 0 36.57 9.285 36.57 23.656v10.907H24.037a1.96 1.96 0 00-1.96 1.961v15.803a1.96 1.96 0 001.96 1.96H36.57v39.876a1.96 1.96 0 001.96 1.96h16.352a1.96 1.96 0 001.96-1.96V54.287h14.654a1.96 1.96 0 001.96-1.96l.006-15.803a1.963 1.963 0 00-1.961-1.961H56.842v-9.246c0-4.444 1.059-6.7 6.848-6.7l8.397-.003a1.96 1.96 0 001.959-1.96V1.98A1.96 1.96 0 0072.089.02z"/></symbol><symbol viewBox="0 0 169.063 169.063" id="instagram" xmlns="http://www.w3.org/2000/svg"><path d="M122.406 0H46.654C20.929 0 0 20.93 0 46.655v75.752c0 25.726 20.929 46.655 46.654 46.655h75.752c25.727 0 46.656-20.93 46.656-46.655V46.655C169.063 20.93 148.133 0 122.406 0zm31.657 122.407c0 17.455-14.201 31.655-31.656 31.655H46.654C29.2 154.063 15 139.862 15 122.407V46.655C15 29.201 29.2 15 46.654 15h75.752c17.455 0 31.656 14.201 31.656 31.655v75.752z"/><path d="M84.531 40.97c-24.021 0-43.563 19.542-43.563 43.563 0 24.02 19.542 43.561 43.563 43.561s43.563-19.541 43.563-43.561c0-24.021-19.542-43.563-43.563-43.563zm0 72.123c-15.749 0-28.563-12.812-28.563-28.561 0-15.75 12.813-28.563 28.563-28.563s28.563 12.813 28.563 28.563c0 15.749-12.814 28.561-28.563 28.561zm45.39-84.842c-2.89 0-5.729 1.17-7.77 3.22a11.053 11.053 0 00-3.23 7.78c0 2.891 1.18 5.73 3.23 7.78 2.04 2.04 4.88 3.22 7.77 3.22 2.9 0 5.73-1.18 7.78-3.22 2.05-2.05 3.22-4.89 3.22-7.78 0-2.9-1.17-5.74-3.22-7.78-2.04-2.05-4.88-3.22-7.78-3.22z"/></symbol><symbol viewBox="0 0 459.7 660.93" id="logo" xmlns="http://www.w3.org/2000/svg"><path d="M345.16 47.89c.89 4.42 1.8 8.54 2.53 12.68a109.81 109.81 0 01.49 36c-2 13.25-5.37 26.13-11.52 38.15a109 109 0 01-25.94 33.53c-17 14.59-36.86 23-58.72 27-11.76 2.18-23.51 3.5-35.47 1.51s-23.55-4.45-34.76-8.83a118.85 118.85 0 01-29.72-17.27c-10.4-8.08-18.51-18.1-25.28-29.2a108 108 0 01-12.78-32.41 126.7 126.7 0 01-3.59-30.08 123.69 123.69 0 013.88-28.91c.15-.6.27-1.21.56-2.55-4.13 3.11-7.8 5.74-11.32 8.55a201.19 201.19 0 00-38.46 40.28 205.17 205.17 0 00-24.1 45.4 201.71 201.71 0 00-13.12 64.77 125.67 125.67 0 006.73 47.18c1 2.71 2.22 5.31 3.08 8 1.61 5.17-.52 9-5.82 9.51a126 126 0 01-16.26 0c-3.12-.13-4.9-2.19-5.94-5.11A171.25 171.25 0 01.89 227.6a166.44 166.44 0 01.42-37.36 248.11 248.11 0 0116.79-66.2 212.6 212.6 0 0117.35-33.33c8-12.66 17-24.67 27.57-35.25a271.67 271.67 0 0124.64-22 279.89 279.89 0 0127.88-19 239.33 239.33 0 0125.63-13c7-3.16 13.55-1.07 17.62 4.69 2.89 4.09 2.9 11 .06 15.18-3.36 5-7.09 9.7-10 14.91a87 87 0 00-10.63 38.7c-1.12 22.94 4.82 43.75 19 61.85 10.17 13 23.68 21.43 39.08 27.11a94.67 94.67 0 0032.81 6.18c8.22 0 16.57-1.45 24.63-3.26a89.11 89.11 0 0031.6-14 80.68 80.68 0 0025.57-28.75c11.92-22.56 13.63-46.23 7.19-70.51a75.44 75.44 0 00-15-29.24c-3.59-4.3-5.29-8.95-3.75-14.61A12.83 12.83 0 01314.08.36a52.88 52.88 0 0112.52 4.61 251.75 251.75 0 0144.38 27.4 223.51 223.51 0 0135 33.28 197.73 197.73 0 0126.83 39.91 287.07 287.07 0 0114 32.54 231.54 231.54 0 0111.82 54.21 173.58 173.58 0 010 37.58 168.19 168.19 0 01-8.74 37c-1.19 3.3-4 4.47-7.23 4.57-4.48.14-9 .18-13.44 0-6-.23-8.85-4.2-7-9.93 1.92-6.08 4.57-12 6.09-18.14 4-16.05 4.55-32.33 2.9-48.81a203.45 203.45 0 00-18.65-67.57 192.93 192.93 0 00-31.16-47.19 220.94 220.94 0 00-34.6-30.94c-.48-.32-.95-.57-1.64-.99zM229.91 617.72c4.76-8.73 9.31-17.07 13.85-25.42q12.3-22.63 24.59-45.27 16.76-30.7 33.55-61.39 15.56-28.5 31.08-57c9.76-18 19.45-36 29.21-53.95 5.41-10 10.95-19.87 16.33-29.85 1.42-2.63 3.36-4.32 6.33-4.38 5.43-.11 10.89-.3 16.3 0 6.5.41 7.67 6.52 5.32 11.25-1.7 3.43-3.6 6.77-5.44 10.13l-29.46 53.82q-17.25 31.68-34.41 63.4-15.31 28.18-30.67 56.44c-7.92 14.51-15.93 29-23.84 43.5-9.47 17.4-18.83 34.86-28.33 52.24-4.52 8.27-9 16.56-13.93 24.59-4.18 6.83-16.91 6.77-21.1-.05s-7.92-13.86-11.77-20.85q-14.42-26.25-28.73-52.56c-7.41-13.61-14.71-27.28-22.12-40.89-8-14.74-16.13-29.42-24.15-44.16-11.12-20.42-22.12-40.89-33.24-61.31-8.17-15-16.44-30-24.64-45q-10.68-19.56-21.3-39.15a8.79 8.79 0 01-.68-7.39 5.84 5.84 0 015.73-4c5.82-.11 11.65.07 17.47.17 2.46 0 3.91 1.61 5 3.58q6.6 12 13.17 23.95c4.48 8.2 8.9 16.43 13.36 24.65l24 44.22c8.22 15.08 16.51 30.12 24.72 45.21 7.26 13.33 14.42 26.72 21.67 40.05 4.88 9 9.88 17.89 14.76 26.86 7.29 13.4 14.5 26.85 21.79 40.25 5.07 9.36 10.25 18.64 15.58 28.31z"/></symbol><symbol viewBox="0 0 512 512" id="menu" xmlns="http://www.w3.org/2000/svg"><path d="M492 276H20c-11.046 0-20-8.954-20-20s8.954-20 20-20h472c11.046 0 20 8.954 20 20s-8.954 20-20 20zM492 116H20c-11.046 0-20-8.954-20-20s8.954-20 20-20h472c11.046 0 20 8.954 20 20s-8.954 20-20 20zM492 436H20c-11.046 0-20-8.954-20-20s8.954-20 20-20h472c11.046 0 20 8.954 20 20s-8.954 20-20 20z"/></symbol><symbol viewBox="0 0 496 496" id="motion-graphics" xmlns="http://www.w3.org/2000/svg"><path d="M472 0H24C10.77 0 0 10.77 0 24v472h496V24c0-13.23-10.77-24-24-24zM24 16h448c4.414 0 8 3.586 8 8v40H16V24c0-4.414 3.586-8 8-8zm-8 464V80h464v400zM48 48H32V32h16zm32 0H64V32h16zm32 0H96V32h16zm-8 96.457v111.094L181.77 200zm16 31.086L154.23 200 120 224.457zm43.992-24.055l8.016-13.84C194.207 150.488 208 174.383 208 200h-16c0-19.93-10.734-38.512-28.008-48.512zm-13.976-5.718A56.24 56.24 0 00136 144v-16c6.07 0 12.129.77 17.984 2.266zM136 304c57.344 0 104-46.656 104-104S193.344 96 136 96 32 142.656 32 200s46.656 104 104 104zm0-192c48.52 0 88 39.48 88 88s-39.48 88-88 88-88-39.48-88-88 39.48-88 88-88zm329.223 274.098l-90.438-11.305 11.305 90.437L408 443.312l24 24L467.313 432l-24-24zM444.687 432L432 444.688l-24-24-10.098 10.09-4.695-37.563 37.563 4.695L420.687 408zM368 360v-14.625L358.625 336h-13.25L336 345.375v13.25l9.375 9.375H360v24h-16v-20.688l-14.625 14.625-11.313-11.312L332.688 360H312v-16h20.688l-14.625-14.625 11.312-11.313L344 332.688V312h16v20.688l14.625-14.625 11.313 11.312L371.313 344H392v16zm-88-48c0-3.04-.625-5.93-1.664-8.617l21.777-18.664c3.52 2.035 7.543 3.281 11.887 3.281 13.23 0 24-10.77 24-24 0-10.414-6.71-19.215-16-22.527V168h16v-48h-16V96h-16v24h-16v48h16v73.473c-9.29 3.312-16 12.113-16 22.527 0 3.04.625 5.93 1.664 8.617l-21.777 18.664C264.367 289.246 260.344 288 256 288c-13.23 0-24 10.77-24 24 0 10.414 6.71 19.215 16 22.527v42.953a23.945 23.945 0 00-7.176 4.086l-41.304-24.78A24.24 24.24 0 00200 352c0-13.23-10.77-24-24-24s-24 10.77-24 24c0 2.031.328 3.977.809 5.863l-39.993 31.328-37.144-39.511C78.382 345.793 80 341.09 80 336c0-13.23-10.77-24-24-24s-24 10.77-24 24 10.77 24 24 24c2.266 0 4.406-.414 6.488-1L104 403.168v14.305c-9.29 3.312-16 12.113-16 22.527 0 13.23 10.77 24 24 24s24-10.77 24-24c0-10.414-6.71-19.215-16-22.527v-13.578l41.742-32.704C165.734 374.176 170.641 376 176 376c5.785 0 11.031-2.145 15.176-5.566l41.304 24.78A24.186 24.186 0 00232 400c0 13.23 10.77 24 24 24s24-10.77 24-24c0-10.414-6.71-19.215-16-22.527V334.52c9.29-3.305 16-12.106 16-22.52zm24-176h16v16h-16zM48 336c0-4.414 3.586-8 8-8s8 3.586 8 8-3.586 8-8 8-8-3.586-8-8zm264-80c4.414 0 8 3.586 8 8s-3.586 8-8 8-8-3.586-8-8 3.586-8 8-8zm-56 48c4.414 0 8 3.586 8 8s-3.586 8-8 8-8-3.586-8-8 3.586-8 8-8zM112 448c-4.414 0-8-3.586-8-8s3.586-8 8-8 8 3.586 8 8-3.586 8-8 8zm64-88c-4.414 0-8-3.586-8-8s3.586-8 8-8 8 3.586 8 8-3.586 8-8 8zm80 48c-4.414 0-8-3.586-8-8s3.586-8 8-8 8 3.586 8 8-3.586 8-8 8zm176-120h16V176h16v-48h-16V96h-16v32h-16v48h16zm0-144h16v16h-16zm-64 144h16v-64h16v-48h-16V96h-16v80h-16v48h16zm0-96h16v16h-16zm0 0"/></symbol><symbol viewBox="0 0 24.826 57.068" id="paperclip" xmlns="http://www.w3.org/2000/svg"><path d="M12.413 57.068C5.569 57.068 0 51.5 0 44.655V8.399c0-.375.103-.726.283-1.025C1.329 3.145 5.156 0 9.703 0c5.35 0 9.703 4.353 9.703 9.703v27.888a7.002 7.002 0 01-6.994 6.994 7.002 7.002 0 01-6.994-6.994V15.838a2 2 0 014 0v21.753a2.997 2.997 0 002.994 2.994 2.998 2.998 0 002.994-2.994V9.703A5.71 5.71 0 009.703 4 5.71 5.71 0 004 9.703v34.952c0 4.639 3.774 8.413 8.413 8.413 4.64 0 8.413-3.774 8.413-8.413V15.836a2 2 0 014 0v28.819c0 6.845-5.568 12.413-12.413 12.413z"/></symbol><symbol viewBox="0 0 0 0" id="sprite" xmlns="http://www.w3.org/2000/svg"/><symbol viewBox="0 0 20.847 20.847" id="vimeo" xmlns="http://www.w3.org/2000/svg"><path d="M17.811 2.018c2.017.053 3.026 1.198 3.036 3.438 0 .147-.005.3-.013.457-.089 1.899-1.502 4.486-4.245 7.76-2.829 3.43-5.229 5.147-7.2 5.156-1.226 0-2.244-1.05-3.061-3.151l-.858-2.88-.848-2.876c-.625-2.084-1.293-3.124-2.006-3.124-.156 0-.697.304-1.626.91L0 6.537l1.536-1.276 1.511-1.263C4.4 2.914 5.429 2.328 6.135 2.241c.094-.01.188-.013.284-.013 1.449 0 2.354 1.041 2.709 3.124.198 1.188.362 2.154.495 2.896.129.744.237 1.262.323 1.557.479 1.97.995 2.96 1.55 2.968.426 0 1.082-.642 1.968-1.926.866-1.319 1.332-2.296 1.392-2.932.019-.129.026-.25.026-.362 0-.861-.474-1.29-1.418-1.29-.479 0-.99.102-1.537.299.98-3.021 2.864-4.534 5.65-4.544h.234z"/></symbol></svg>